<svg xmlns="http://www.w3.org/2000/svg" viewBox="0 0 21.27 19.87"><defs><style>.cls-1,.cls-9{fill:#fb5845;}.cls-2,.cls-7{fill:#78c17c;}.cls-3,.cls-8{fill:#fb7f16;}.cls-4{fill:none;stroke:#fb7f16;stroke-linecap:round;stroke-linejoin:round;stroke-width:0.57px;}.cls-5{fill:#4d443c;}.cls-6{fill:#f9b916;}.cls-6,.cls-7,.cls-8,.cls-9{fill-rule:evenodd;}.cls-10{fill:#fff;}</style></defs><title>3_1</title><g id="Layer_2" data-name="Layer 2"><g id="Layer_1-2" data-name="Layer 1"><path class="cls-1" d="M13.46,6.36a.28.28,0,1,1-.57,0,7.77,7.77,0,0,1,.52-2.28,11.34,11.34,0,0,0,.66-2.82.29.29,0,0,1,0-.1L14.17,1a.28.28,0,0,1,.37-.16.29.29,0,0,1,.16.37l-.06.15A12,12,0,0,1,14,4.27a7.53,7.53,0,0,0-.5,2.09"/><path class="cls-1" d="M13.7,6.43a.28.28,0,1,1-.56-.08l.06-.4c.16-1.1.56-3.73.56-4.34a.28.28,0,1,1,.57,0c0,.64-.4,3.31-.56,4.42Z"/><path class="cls-1" d="M13,6.11A.28.28,0,1,1,12.4,6l.06-.4c.16-1.1.56-3.73.56-4.34a.28.28,0,1,1,.57,0c0,.64-.4,3.31-.56,4.42Z"/><path class="cls-2" d="M10.6,4.64A.28.28,0,1,1,10,4.56c0-.3.1-.89.14-1.49s.07-1.12.07-1.47a.28.28,0,1,1,.57,0c0,.35,0,.93-.07,1.51s-.1,1.22-.14,1.53"/><path class="cls-1" d="M11.85,5.71a.28.28,0,1,1-.56-.08c0-.3.1-.89.14-1.49s.07-1.12.07-1.47a.28.28,0,1,1,.57,0c0,.35,0,.93-.07,1.51s-.1,1.22-.14,1.54"/><path class="cls-1" d="M12.2,5.52a.28.28,0,1,1-.56-.08c0-.3.1-.89.14-1.49s.07-1.12.07-1.47a.28.28,0,1,1,.57,0c0,.35,0,.93-.07,1.51s-.1,1.22-.14,1.53"/><path class="cls-2" d="M10.9,5.53a.29.29,0,0,1-.19.35.28.28,0,0,1-.35-.2A8.5,8.5,0,0,1,10.2,4.6c-.14-1.25-.35-3.16-.95-3.43A.29.29,0,0,1,9.1.79.28.28,0,0,1,9.48.65c.89.4,1.13,2.51,1.28,3.89a8.87,8.87,0,0,0,.14,1"/><path class="cls-3" d="M9.16,1.6a.28.28,0,1,1-.57,0A2,2,0,0,1,8.73,1,2.67,2.67,0,0,0,8.88.34a.29.29,0,0,1,0-.09l0,0A.28.28,0,0,1,9.29,0a.29.29,0,0,1,.16.37h0a3.27,3.27,0,0,1-.18.74,1.83,1.83,0,0,0-.11.44"/><path class="cls-2" d="M12.35,6.26a.28.28,0,1,1-.56-.08l.06-.4c.16-1.1.56-3.73.56-4.34a.28.28,0,1,1,.57,0c0,.64-.4,3.31-.56,4.42Z"/><path class="cls-2" d="M11.1,4.83a.28.28,0,1,1-.56-.08c.06-.41.13-1.21.19-2s.09-1.52.09-2a.28.28,0,1,1,.57,0c0,.47,0,1.25-.09,2s-.13,1.64-.19,2.06"/><path class="cls-4" d="M15.39,5.16c.45-.44,1.38-3.41,2.37-3.48l.16-.09"/><path class="cls-2" d="M10.5,5.81a.28.28,0,1,1-.57,0,8,8,0,0,0-.79-3A2.15,2.15,0,0,0,7.78,1.57.29.29,0,0,1,7.88,1,2.68,2.68,0,0,1,9.64,2.55a8.68,8.68,0,0,1,.86,3.26"/><path class="cls-3" d="M11.54,5.86a.28.28,0,0,1-.35.2A.29.29,0,0,1,11,5.7,6.52,6.52,0,0,0,11.13,4c0-1.38,0-2.75,1.42-3.06,0,0,0,0,0,0l.08-.07a.28.28,0,0,1,.4,0,.29.29,0,0,1,0,.4l0,0a.56.56,0,0,1-.28.17c-1,.21-1,1.35-1,2.5a6.9,6.9,0,0,1-.16,1.85"/><path class="cls-1" d="M14.15,5.55a.28.28,0,1,1-.57,0,7.76,7.76,0,0,1,.52-2.28A11.34,11.34,0,0,0,14.77.46a.29.29,0,0,1,0-.1l.08-.19A.28.28,0,0,1,15.23,0a.29.29,0,0,1,.16.37l-.06.15a12,12,0,0,1-.69,2.92,7.54,7.54,0,0,0-.5,2.09"/><path class="cls-3" d="M10.56,6a.29.29,0,0,1-.19.35.28.28,0,0,1-.35-.2,8.49,8.49,0,0,1-.16-1.09c-.14-1.25-.35-3.16-.95-3.43a.29.29,0,0,1-.14-.38.28.28,0,0,1,.37-.15c.89.4,1.13,2.51,1.28,3.89a8.74,8.74,0,0,0,.14,1"/><path class="cls-1" d="M12.65,5.58a.28.28,0,1,1-.56-.08c0-.3.1-.89.14-1.49s.07-1.12.07-1.47a.28.28,0,1,1,.57,0c0,.35,0,.93-.07,1.51s-.1,1.22-.14,1.54"/><path class="cls-3" d="M10.76,7.17a.28.28,0,1,1-.56-.08c.17-1.15-.69-2.85-1.39-4.25A6.32,6.32,0,0,1,7.91.48a.28.28,0,1,1,.57,0,6.63,6.63,0,0,0,.84,2.06C10,4,11,5.84,10.76,7.17"/><path class="cls-2" d="M16.51,3.19a.28.28,0,0,1-.25-.51,4.52,4.52,0,0,0,0-.54A2.71,2.71,0,0,1,16.47,1h0A.28.28,0,1,1,17,1v.09a.28.28,0,0,1-.08.22,2.32,2.32,0,0,0-.13.84c0,.46-.06.89-.32,1"/><path class="cls-1" d="M15.62,4.45a.28.28,0,1,1-.25-.51,4.68,4.68,0,0,0,0-.54,2.71,2.71,0,0,1,.21-1.1h0a.28.28,0,1,1,.57,0v.09a.29.29,0,0,1-.08.22,2.33,2.33,0,0,0-.13.84c0,.46-.05.89-.32,1"/><path class="cls-3" d="M16.1,3.59a.28.28,0,1,1-.25-.51,4.75,4.75,0,0,0,0-.54,2.72,2.72,0,0,1,.21-1.1h0a.28.28,0,0,1,.57,0v.09a.29.29,0,0,1-.08.22,2.33,2.33,0,0,0-.13.84c0,.46-.06.88-.32,1"/><path class="cls-3" d="M13.32,6.54a.28.28,0,1,1-.56-.08l.06-.4c.16-1.1.56-3.73.56-4.34a.28.28,0,1,1,.57,0c0,.64-.4,3.31-.56,4.42Z"/><path class="cls-3" d="M14.9,4.13a.28.28,0,1,1-.25-.51,4.7,4.7,0,0,0,0-.54A2.71,2.71,0,0,1,14.86,2h0a.28.28,0,1,1,.57,0v.09a.28.28,0,0,1-.08.22,2.34,2.34,0,0,0-.13.84c0,.46-.06.89-.32,1"/><path class="cls-2" d="M15.28,4.46A.28.28,0,1,1,15,3.95a4.72,4.72,0,0,0,0-.54,2.71,2.71,0,0,1,.21-1.1h0a.28.28,0,1,1,.57,0v.09a.28.28,0,0,1-.08.22,2.33,2.33,0,0,0-.13.84c0,.46-.05.89-.32,1"/><path class="cls-5" d="M15,19.85a.29.29,0,0,1,0-.57h4.74a.29.29,0,0,1,0,.57Z"/><path class="cls-5" d="M17.26,18.64a.29.29,0,0,1,0-.57h1.51a.29.29,0,0,1,0,.57Z"/><path class="cls-5" d="M16.32,19.33a.29.29,0,1,1,0-.57H21a.29.29,0,1,1,0,.57Z"/><path class="cls-6" d="M15.64,19.56H10.22c-2.68,0-2.2.43-2.11-1.9.16-4.3.14-8,0-12.28C8,3.46,7.66,3.83,9.89,3.83h6c2,0,1.64-.31,1.57,1.41-.18,4.25-.13,8.07,0,12.32.06,2.14.39,2-1.83,2"/><path class="cls-5" d="M10.22,19.27H16c.73,0,1.07,0,1.16-.09s.06-.35,0-.87c0-.21,0-.44,0-.74h0c-.05-2.12-.09-4.14-.09-6.16s0-4,.12-6.17c0-.3,0-.51,0-.69s0-.44,0-.44a2.84,2.84,0,0,0-.59,0H9.89L9,4.1a2.44,2.44,0,0,0-.66,0,3.72,3.72,0,0,0,0,.53c0,.19,0,.42,0,.72.08,2.15.12,4.15.13,6.15s0,4-.11,6.15c0,.4,0,.7-.06.94a2.48,2.48,0,0,0,0,.66h0a2.44,2.44,0,0,0,.84,0l1.07,0m5.42.57H10.22l-1.05,0c-.67,0-1,0-1.23-.17l0,0c-.22-.22-.2-.52-.15-1.11,0-.25,0-.56.06-.92.08-2.15.12-4.14.11-6.13s0-4-.13-6.13c0-.27,0-.51,0-.7,0-.54-.06-.81.17-1s.48-.16,1-.14l.9,0H16.7c.53,0,.79,0,1,.14s.19.43.15.91c0,.19,0,.42,0,.66-.09,2.12-.12,4.14-.12,6.15s0,4,.09,6.15c0,.27,0,.52,0,.73,0,.68.05,1-.18,1.29s-.68.28-1.58.27Z"/><path class="cls-6" d="M2.15,11.67a34.54,34.54,0,0,1,8.46,0c1.89.23,3,7.92.51,7.92H1.78c-2.43,0-1.6-7.68.38-7.92"/><path class="cls-5" d="M6.32,11.69a34.32,34.32,0,0,0-4.13.26C1.52,12,1,13.26.73,14.7a10.11,10.11,0,0,0-.16,1.94,5.86,5.86,0,0,0,.24,1.67c.19.6.51,1,1,1h9.35c.45,0,.76-.36.94-.9a5.33,5.33,0,0,0,.22-1.61,10.07,10.07,0,0,0-.18-1.91c-.29-1.51-.87-2.84-1.53-2.92a34.53,34.53,0,0,0-4.26-.26m-4.2-.31a35,35,0,0,1,8.53,0c.94.12,1.69,1.65,2,3.39a10.62,10.62,0,0,1,.19,2,5.89,5.89,0,0,1-.25,1.79c-.26.78-.74,1.3-1.48,1.3H1.78C1,19.87.54,19.32.27,18.48A6.42,6.42,0,0,1,0,16.64a10.66,10.66,0,0,1,.17-2C.47,12.94,1.17,11.5,2.12,11.38Z"/><path class="cls-7" d="M4,16a.71.71,0,1,1-.71.71A.71.71,0,0,1,4,16"/><path class="cls-7" d="M3.85,13.73a.71.71,0,1,1-.71.71.71.71,0,0,1,.71-.71"/><path class="cls-7" d="M6.39,12.82a.71.71,0,1,1-.71.71.71.71,0,0,1,.71-.71"/><path class="cls-7" d="M8.59,13.45a.71.71,0,1,1-.71.71.71.71,0,0,1,.71-.71"/><path class="cls-7" d="M5.18,14.36a.71.71,0,1,1-.71.71.71.71,0,0,1,.71-.71"/><path class="cls-7" d="M7.17,15.15a1.1,1.1,0,1,1-1.1,1.1,1.1,1.1,0,0,1,1.1-1.1"/><path class="cls-7" d="M9.32,16.43a.71.71,0,1,1-.71.71.71.71,0,0,1,.71-.71"/><path class="cls-7" d="M9.89,14.9a.71.71,0,1,1-.71.71.71.71,0,0,1,.71-.71"/><path class="cls-7" d="M5.18,15.43A1.22,1.22,0,1,1,4,16.65a1.22,1.22,0,0,1,1.22-1.22"/><path class="cls-7" d="M3,14.59a.71.71,0,1,1-.71.71A.71.71,0,0,1,3,14.59"/><path class="cls-7" d="M2.58,16.45a.71.71,0,1,1-.71.71.71.71,0,0,1,.71-.71"/><path class="cls-7" d="M8.08,16.63a.71.71,0,1,1-.71.71.71.71,0,0,1,.71-.71"/><path class="cls-7" d="M7,14.09a.71.71,0,1,1-.71.71A.71.71,0,0,1,7,14.09"/><path class="cls-7" d="M5.54,13a1.2,1.2,0,1,1-1.2,1.2A1.2,1.2,0,0,1,5.54,13"/><path class="cls-8" d="M6.4,16.61a.84.84,0,1,1-.84.84.84.84,0,0,1,.84-.84"/><path class="cls-8" d="M3.55,16.81a.71.71,0,1,1-.71.71.71.71,0,0,1,.71-.71"/><path class="cls-8" d="M2.61,13.63a.71.71,0,1,1-.71.71.71.71,0,0,1,.71-.71"/><path class="cls-8" d="M3.75,12.82c.54,0,1,.32,1,.71s-.44.71-1,.71-1-.32-1-.71.44-.71,1-.71"/><path class="cls-8" d="M7.9,14.57a.71.71,0,1,1-.71.71.71.71,0,0,1,.71-.71"/><path class="cls-8" d="M8.5,15.12a1,1,0,1,1-1,1,1,1,0,0,1,1-1"/><path class="cls-8" d="M9.86,13.57a.71.71,0,1,1-.71.71.71.71,0,0,1,.71-.71"/><path class="cls-8" d="M7.65,13.06a.83.83,0,1,1-.83.83.83.83,0,0,1,.83-.83"/><path class="cls-8" d="M9.41,15a.71.71,0,1,1-.71.71A.71.71,0,0,1,9.41,15"/><path class="cls-8" d="M4.08,14.56a.81.81,0,1,1-.81.81.81.81,0,0,1,.81-.81"/><path class="cls-8" d="M8.94,14.35a.71.71,0,1,1-.71.71.71.71,0,0,1,.71-.71"/><path class="cls-9" d="M7.6,16.87a.71.71,0,1,1-.71.71.71.71,0,0,1,.71-.71"/><path class="cls-9" d="M4.58,16.77a.71.71,0,1,1-.71.71.71.71,0,0,1,.71-.71"/><path class="cls-9" d="M3.38,15.73a.71.71,0,1,1-.71.71.71.71,0,0,1,.71-.71"/><path class="cls-9" d="M4.91,13.11a.71.71,0,1,1-.71.71.71.71,0,0,1,.71-.71"/><path class="cls-9" d="M6.21,13.37a.71.71,0,1,1-.71.71.71.71,0,0,1,.71-.71"/><path class="cls-8" d="M8.93,12.73a.71.71,0,1,1-.71.71.71.71,0,0,1,.71-.71"/><path class="cls-8" d="M10.13,15.79a.71.71,0,1,1-.71.71.71.71,0,0,1,.71-.71"/><path class="cls-9" d="M6.17,14.52a1,1,0,1,1-1,1,1,1,0,0,1,1-1"/><path class="cls-9" d="M5.13,15.07a.71.71,0,1,1-.71.71.71.71,0,0,1,.71-.71"/><path class="cls-8" d="M10.07,16.76a.71.71,0,1,1-.71.71.71.71,0,0,1,.71-.71"/><path class="cls-10" d="M6.41,13.25A31.35,31.35,0,0,0,3,13.41c-.36,0-.65.77-.8,1.61a6.14,6.14,0,0,0-.1,1.18,3.52,3.52,0,0,0,.14,1c.11.32.27.54.49.54h7.45c.22,0,.38-.19.48-.48a3.17,3.17,0,0,0,.13-1,6.09,6.09,0,0,0-.11-1.16c-.17-.89-.49-1.67-.85-1.72a30.77,30.77,0,0,0-3.4-.16m-3.5-.41a31.82,31.82,0,0,1,3.5-.16,31.27,31.27,0,0,1,3.47.16c.63.08,1.13,1.07,1.34,2.18a6.69,6.69,0,0,1,.12,1.27,3.75,3.75,0,0,1-.16,1.14,1.08,1.08,0,0,1-1,.88H2.71c-.52,0-.85-.37-1-.93a4.09,4.09,0,0,1-.17-1.17,6.7,6.7,0,0,1,.11-1.29C1.81,13.85,2.27,12.92,2.91,12.84Z"/><path class="cls-5" d="M15.39,16.31a.29.29,0,1,1-.56-.12,30.7,30.7,0,0,0,.23-7C15,8.34,15,7.55,15,6.92a.29.29,0,1,1,.57,0c0,.67,0,1.43.06,2.25a31.1,31.1,0,0,1-.24,7.14"/><path class="cls-10" d="M10.08,9.12a.29.29,0,0,1-.57,0c0-.28,0-.61,0-1a8.21,8.21,0,0,0-.23-2.85A.29.29,0,0,1,9.46,5l.12,0,2,0a.29.29,0,1,1,0,.57l-1.65,0a10.25,10.25,0,0,1,.15,2.67c0,.34,0,.66,0,.92"/></g></g></svg>